<?xml version="1.0" encoding="utf-8"?>
<!-- Generator: Adobe Illustrator 20.0.0, SVG Export Plug-In . SVG Version: 6.00 Build 0)  -->
<svg version="1.1" id="Layer_1" xmlns="http://www.w3.org/2000/svg" xmlns:xlink="http://www.w3.org/1999/xlink" x="0px" y="0px"
	 viewBox="0 0 17 17" style="enable-background:new 0 0 17 17;" xml:space="preserve">
<style type="text/css">
	.st0{fill:#FEFEFE;}
</style>
<path class="st0" d="M16.6,1.2c-0.1,0-1.3-0.2-3-0.2c-2.1,0-3.8,0.4-5.1,1.1C7,1.2,5.2,0.8,3.3,0.8c-1.7,0-2.9,0.3-2.9,0.3L0,1.3
	l0,13.9L0.6,15c0,0,1.1-0.3,2.7-0.3c1.4,0,2.8,0.2,4,0.7v0.8h2.5v-0.9c1.3-0.5,2.7-0.6,3.9-0.6c1.6,0,2.8,0.2,2.8,0.2l0.6,0.1V1.2
	C17,1.2,16.6,1.2,16.6,1.2z M1,13.9V2C1.5,2,2.3,1.8,3.3,1.8c1.8,0,3.3,0.4,4.7,1v11.8c-1.4-0.6-3-0.9-4.7-0.9
	C2.3,13.7,1.5,13.8,1,13.9z M16,13.9c-0.5-0.1-1.4-0.2-2.4-0.2c-1.8,0-3.4,0.3-4.6,0.9V2.9c1.4-0.8,3.3-1,4.6-1c1,0,1.9,0.1,2.4,0.2
	C16,2.1,16,13.9,16,13.9z"/>
</svg>
