<svg xmlns="http://www.w3.org/2000/svg" xmlns:xlink="http://www.w3.org/1999/xlink" viewBox="0 0 34 32">
  <defs>
    <style>
      .cls-1 {
        clip-path: url(#clip-money_icon);
      }

      .cls-2 {
        fill: #1e1e24;
      }
    </style>
    <clipPath id="clip-money_icon">
      <rect width="34" height="32"/>
    </clipPath>
  </defs>
  <g id="money_icon" class="cls-1">
    <g id="group-9" transform="translate(-1042.521 -513.165)">
      <g id="money" transform="translate(1044 520.34)">
        <path id="path" class="cls-2" d="M12.239,13.1h0l-.013-.014c-.016-.015-.028-.033-.046-.046l0,.005-2.114-1.753v-7.8a3.2,3.2,0,0,1,2.532,3.14l.632.082.634-.082a4.522,4.522,0,0,0-3.8-4.507V0H8.8V2.117A4.522,4.522,0,0,0,5,6.624a4.644,4.644,0,0,0,1.457,3.382l-.006.007.051.042h0l2.3,1.906v7.8a3.2,3.2,0,0,1-2.532-3.14H5A4.522,4.522,0,0,0,8.8,21.13v2.118h1.266V21.13a4.522,4.522,0,0,0,3.8-4.507A4.608,4.608,0,0,0,12.239,13.1ZM7.306,9a3.237,3.237,0,0,1-1.04-2.375A3.2,3.2,0,0,1,8.8,3.484v6.753Zm2.757,10.763v-6.75l1.4,1.161a3.212,3.212,0,0,1-1.4,5.589Z" transform="translate(-5 0)"/>
      </g>
      <g id="money-2" data-name="money" transform="translate(1065.495 520.34)">
        <path id="path-2" data-name="path" class="cls-2" d="M12.239,13.1h0l-.013-.014c-.016-.015-.028-.033-.046-.046l0,.005-2.114-1.753v-7.8a3.2,3.2,0,0,1,2.532,3.14l.632.082.634-.082a4.522,4.522,0,0,0-3.8-4.507V0H8.8V2.117A4.522,4.522,0,0,0,5,6.624a4.644,4.644,0,0,0,1.457,3.382l-.006.007.051.042h0l2.3,1.906v7.8a3.2,3.2,0,0,1-2.532-3.14H5A4.522,4.522,0,0,0,8.8,21.13v2.118h1.266V21.13a4.522,4.522,0,0,0,3.8-4.507A4.608,4.608,0,0,0,12.239,13.1ZM7.306,9a3.237,3.237,0,0,1-1.04-2.375A3.2,3.2,0,0,1,8.8,3.484v6.753Zm2.757,10.763v-6.75l1.4,1.161a3.212,3.212,0,0,1-1.4,5.589Z" transform="translate(-5 0)"/>
      </g>
      <g id="money-3" data-name="money" transform="translate(1054.509 515.165)">
        <path id="path-3" data-name="path" class="cls-2" d="M12.239,13.1h0l-.013-.014c-.016-.015-.028-.033-.046-.046l0,.005-2.114-1.753v-7.8a3.2,3.2,0,0,1,2.532,3.14l.632.082.634-.082a4.522,4.522,0,0,0-3.8-4.507V0H8.8V2.117A4.522,4.522,0,0,0,5,6.624a4.644,4.644,0,0,0,1.457,3.382l-.006.007.051.042h0l2.3,1.906v7.8a3.2,3.2,0,0,1-2.532-3.14H5A4.522,4.522,0,0,0,8.8,21.13v2.118h1.266V21.13a4.522,4.522,0,0,0,3.8-4.507A4.608,4.608,0,0,0,12.239,13.1ZM7.306,9a3.237,3.237,0,0,1-1.04-2.375A3.2,3.2,0,0,1,8.8,3.484v6.753Zm2.757,10.763v-6.75l1.4,1.161a3.212,3.212,0,0,1-1.4,5.589Z" transform="translate(-5 0)"/>
      </g>
    </g>
  </g>
</svg>
