<?xml version="1.0" encoding="utf-8"?>
<!-- Generator: Adobe Illustrator 20.0.0, SVG Export Plug-In . SVG Version: 6.00 Build 0)  -->
<svg version="1.1" id="Layer_1" xmlns="http://www.w3.org/2000/svg" xmlns:xlink="http://www.w3.org/1999/xlink" x="0px" y="0px"
	 viewBox="0 0 17 17" style="enable-background:new 0 0 17 17;" xml:space="preserve">
<style type="text/css">
	.st0{fill:#FEFEFE;}
</style>
<path class="st0" d="M6.8,13.4c-1.1-1-1.7-2.5-1.7-4c0-3,2.5-5.5,5.5-5.5h2.9l-2.6-2.6l0.7-0.7l3.9,3.9l-3.9,3.9l-0.7-0.7l2.6-2.6
	h-2.9C8.1,4.9,6,6.9,6,9.4c0,1.3,0.5,2.4,1.4,3.3C7.5,12.7,6.8,13.4,6.8,13.4z M16,9v6.5c0,0.3-0.2,0.5-0.5,0.5h-14
	C1.3,16,1,15.8,1,15.5V9H0v6.5C0,16.3,0.7,17,1.5,17h14c0.8,0,1.5-0.7,1.5-1.5V9C17,9,16,9,16,9z"/>
</svg>
