<?xml version="1.0" encoding="utf-8"?>
<!-- Generator: Adobe Illustrator 20.0.0, SVG Export Plug-In . SVG Version: 6.00 Build 0)  -->
<svg version="1.1" id="Layer_1" xmlns="http://www.w3.org/2000/svg" xmlns:xlink="http://www.w3.org/1999/xlink" x="0px" y="0px"
	 viewBox="0 0 90 90" style="enable-background:new 0 0 90 90;" xml:space="preserve">
<style type="text/css">
	.st0{fill:#1E1E24;}
</style>
<g>
	<g>
		<ellipse transform="matrix(0.1734 -0.9849 0.9849 0.1734 9.4568 111.1511)" class="st0" cx="70.9" cy="49.9" rx="7" ry="7"/>
		<path class="st0" d="M51.6,27.6c3.7,1.3,7.8-0.6,9.1-4.2c1.3-3.6-0.6-7.8-4.2-9.1c-3.7-1.3-7.8,0.6-9.1,4.2
			C46.1,22.1,48.1,26.2,51.6,27.6z"/>
		<path class="st0" d="M61.7,36c1.9,3.4,6.3,4.5,9.7,2.5c3.4-1.9,4.5-6.3,2.5-9.7c-1.9-3.4-6.3-4.5-9.7-2.5
			C60.9,28.2,59.7,32.5,61.7,36z"/>
		<path class="st0" d="M57.5,60.1c-3,2.5-3.4,7-0.9,10s7,3.4,10,0.9s3.4-7,0.9-10C65,58,60.5,57.5,57.5,60.1z"/>
		<path class="st0" d="M32.8,60.1c-3-2.5-7.5-2.1-10,0.9c-2.5,3-2.1,7.5,0.9,10s7.5,2.1,10-0.9C36.2,67.1,35.9,62.6,32.8,60.1z"/>
		<ellipse transform="matrix(0.9848 -0.1739 0.1739 0.9848 -8.3946 4.1146)" class="st0" cx="19.3" cy="50" rx="7" ry="7"/>
		<ellipse class="st0" cx="45.2" cy="71.6" rx="7" ry="7"/>
		<g id="XMLID_2_">
			<g>
				<path class="st0" d="M88.9,37.8c1.8,9.9,0.1,20.5-5.2,29.8l0,0l-0.7-0.4c-2.1-4.6-2.7-10-1.8-15.4s3.4-10.2,7-13.9L88.9,37.8z"
					/>
				<path class="st0" d="M88.9,37.8l-0.7,0.1c-4.6-2.2-8.5-5.8-11.4-10.6c-2.7-4.8-3.9-10-3.6-15.1l0.6-0.6
					C81.9,18.3,87.1,27.7,88.9,37.8z"/>
				<path class="st0" d="M82.9,67.2l0.7,0.4c-5.4,9.4-13.8,16-23.2,19.5l-0.3-0.7c1.5-4.9,4.3-9.4,8.5-13
					C72.7,69.8,77.7,67.8,82.9,67.2z"/>
				<path class="st0" d="M73.6,11.4L73,12c-4.9,1.3-10.2,1-15.4-0.7S48.2,6.2,45.2,2l0,0V1.1c7.5,0,15.3,1.9,22.1,6
					C69.6,8.4,71.7,9.9,73.6,11.4z"/>
				<path class="st0" d="M60,86.2l0.3,0.7c-9.6,3.4-20.3,3.6-30.4,0l0,0l0.3-0.7c4.3-2.8,9.4-4.5,14.8-4.5S55.7,83.6,60,86.2z"/>
				<path class="st0" d="M45.2,2L45.2,2c-3.1,4.2-7.3,7.3-12.4,9.3c-5.2,1.8-10.6,2.1-15.6,0.9l-0.6-0.6C24.7,4.7,34.7,1.1,45.2,1.1
					V2z"/>
				<path class="st0" d="M30.2,86.2L29.9,87c-2.4-0.9-4.8-1.9-7-3.3c-7.2-4-12.7-9.9-16.5-16.6l0.9-0.1c5.1,0.6,10,2.7,14.2,6.1
					C25.9,76.8,28.8,81.3,30.2,86.2z"/>
				<path class="st0" d="M17.2,12.2c0.3,5.1-0.9,10.3-3.6,15.1c-2.8,4.6-6.7,8.2-11.4,10.6l-0.7-0.1c0.7-4.9,2.5-9.9,5.2-14.5
					s6-8.5,9.9-11.8L17.2,12.2z"/>
				<path class="st0" d="M9.3,51.7c0.9,5.4,0.1,10.8-1.8,15.4l-0.9,0.1c-5.1-9-6.9-19.3-5.1-29.6l0.7,0.3
					C5.9,41.5,8.3,46.3,9.3,51.7z"/>
			</g>
		</g>
		<path class="st0" d="M18.9,38.5c3.4,1.9,7.8,0.7,9.7-2.5c1.9-3.4,0.7-7.8-2.5-9.7c-3.4-1.9-7.8-0.7-9.7,2.5
			C14.4,32.2,15.6,36.6,18.9,38.5z"/>
		<path class="st0" d="M38.6,27.4c3.7-1.3,5.5-5.4,4.2-9.1s-5.4-5.5-9.1-4.2s-5.5,5.4-4.2,9.1C30.8,27,34.9,28.8,38.6,27.4z"/>
	</g>
</g>
</svg>
