<?xml version="1.0" encoding="utf-8"?>
<!-- Generator: Adobe Illustrator 20.0.0, SVG Export Plug-In . SVG Version: 6.00 Build 0)  -->
<svg version="1.1" id="Layer_1" xmlns="http://www.w3.org/2000/svg" xmlns:xlink="http://www.w3.org/1999/xlink" x="0px" y="0px"
	 viewBox="0 0 90 90" style="enable-background:new 0 0 90 90;" xml:space="preserve">
<style type="text/css">
	.st0{fill:#1E1E24;}
</style>
<g>
	<g>
		<ellipse transform="matrix(0.1734 -0.9849 0.9849 0.1734 4.7271 99.9418)" class="st0" cx="61.9" cy="47.2" rx="4.7" ry="4.7"/>
		<path class="st0" d="M49,32.2c2.5,0.9,5.2-0.4,6.1-2.8s-0.4-5.2-2.8-6.1c-2.5-0.9-5.2,0.4-6.1,2.8C45.3,28.5,46.6,31.3,49,32.2z"
			/>
		<path class="st0" d="M55.7,37.8c1.3,2.3,4.2,3,6.5,1.7s3-4.2,1.7-6.5c-1.3-2.3-4.2-3-6.5-1.7C55.2,32.6,54.4,35.5,55.7,37.8z"/>
		<path class="st0" d="M52.9,53.9c-2,1.7-2.3,4.7-0.6,6.7s4.7,2.3,6.7,0.6s2.3-4.7,0.6-6.7S54.9,52.2,52.9,53.9z"/>
		<path class="st0" d="M36.4,53.9c-2-1.7-5-1.4-6.7,0.6c-1.7,2-1.4,5,0.6,6.7s5,1.4,6.7-0.6C38.7,58.6,38.5,55.6,36.4,53.9z"/>
		<ellipse transform="matrix(0.9848 -0.1739 0.1739 0.9848 -7.7854 5.4789)" class="st0" cx="27.4" cy="47.2" rx="4.7" ry="4.7"/>
		<ellipse class="st0" cx="44.7" cy="61.6" rx="4.7" ry="4.7"/>
		<g id="XMLID_2_">
			<g>
				<path class="st0" d="M73.9,39c1.2,6.6,0.1,13.7-3.5,19.9l0,0l-0.5-0.3c-1.4-3.1-1.8-6.7-1.2-10.3s2.3-6.8,4.7-9.3L73.9,39z"/>
				<path class="st0" d="M73.9,39l-0.5,0.1c-3.1-1.5-5.7-3.9-7.6-7.1c-1.8-3.2-2.6-6.7-2.4-10.1l0.4-0.4C69.2,26,72.7,32.3,73.9,39z
					"/>
				<path class="st0" d="M69.9,58.7l0.5,0.3c-3.6,6.3-9.2,10.7-15.5,13l-0.2-0.5c1-3.3,2.9-6.3,5.7-8.7
					C63.1,60.4,66.4,59.1,69.9,58.7z"/>
				<path class="st0" d="M63.7,21.4l-0.4,0.4c-3.3,0.9-6.8,0.7-10.3-0.5c-3.5-1.2-6.3-3.4-8.3-6.2l0,0v-0.6c5,0,10.2,1.3,14.8,4
					C61,19.4,62.4,20.4,63.7,21.4z"/>
				<path class="st0" d="M54.6,71.4l0.2,0.5c-6.4,2.3-13.6,2.4-20.3,0l0,0l0.2-0.5c2.9-1.9,6.3-3,9.9-3
					C48.2,68.4,51.7,69.6,54.6,71.4z"/>
				<path class="st0" d="M44.7,15.1L44.7,15.1c-2.1,2.8-4.9,4.9-8.3,6.2c-3.5,1.2-7.1,1.4-10.4,0.6l-0.4-0.4c5.4-4.6,12.1-7,19.1-7
					V15.1z"/>
				<path class="st0" d="M34.7,71.4l-0.2,0.5c-1.6-0.6-3.2-1.3-4.7-2.2c-4.8-2.7-8.5-6.6-11-11.1l0.6-0.1c3.4,0.4,6.7,1.8,9.5,4.1
					C31.8,65.1,33.7,68.1,34.7,71.4z"/>
				<path class="st0" d="M26,21.9c0.2,3.4-0.6,6.9-2.4,10.1c-1.9,3.1-4.5,5.5-7.6,7.1L15.5,39c0.5-3.3,1.7-6.6,3.5-9.7
					c1.8-3.1,4-5.7,6.6-7.9L26,21.9z"/>
				<path class="st0" d="M20.7,48.3c0.6,3.6,0.1,7.2-1.2,10.3l-0.6,0.1c-3.4-6-4.6-12.9-3.4-19.8l0.5,0.2
					C18.4,41.5,20,44.7,20.7,48.3z"/>
			</g>
		</g>
		<path class="st0" d="M27.1,39.5c2.3,1.3,5.2,0.5,6.5-1.7c1.3-2.3,0.5-5.2-1.7-6.5c-2.3-1.3-5.2-0.5-6.5,1.7
			C24.1,35.3,24.9,38.2,27.1,39.5z"/>
		<path class="st0" d="M40.3,32.1c2.5-0.9,3.7-3.6,2.8-6.1s-3.6-3.7-6.1-2.8s-3.7,3.6-2.8,6.1S37.8,33,40.3,32.1z"/>
	</g>
</g>
</svg>
