<?xml version="1.0" encoding="utf-8"?>
<!-- Generator: Adobe Illustrator 20.0.0, SVG Export Plug-In . SVG Version: 6.00 Build 0)  -->
<svg version="1.1" id="Layer_1" xmlns="http://www.w3.org/2000/svg" xmlns:xlink="http://www.w3.org/1999/xlink" x="0px" y="0px"
	 viewBox="0 0 17 17" style="enable-background:new 0 0 17 17;" xml:space="preserve">
<style type="text/css">
	.st0{fill:#FEFEFE;}
</style>
<path class="st0" d="M11.7,0H3v2H2.5C1.7,2,1,2.7,1,3.5v8.6l2.5,5l2.5-5V3.5C6,2.7,5.3,2,4.5,2H4V1h7v5h5v10H4.5v1H17V5.3
	C17,5.3,11.7,0,11.7,0z M3.9,14H3.1L2,11.8V6h1v6h1V6h1v5.9C5,11.8,3.9,14,3.9,14z M5,3.5V5H2V3.5C2,3.2,2.2,3,2.5,3h2
	C4.8,3,5,3.2,5,3.5z M12,1.7L15.3,5H12C12,5,12,1.7,12,1.7z"/>
</svg>
