<svg xmlns="http://www.w3.org/2000/svg" viewBox="-0.688 2.783 15.688 9.059">
  <defs>
    <style>
      .cls-1 {
        fill: #1e1e24;
        stroke: rgba(0,0,0,0);
        stroke-width: 1px;
      }
    </style>
  </defs>
  <path id="AD" class="cls-1" d="M5.285-4.976H2.374L1.82-3.316H.055l3-8.059H4.593L7.61-3.316H5.844ZM2.822-6.321H4.837L3.824-9.338ZM8.363-3.316v-8.059h2.48a3.766,3.766,0,0,1,1.9.479,3.339,3.339,0,0,1,1.309,1.362,4.2,4.2,0,0,1,.47,2.006v.371a4.212,4.212,0,0,1-.462,2,3.31,3.31,0,0,1-1.3,1.356,3.794,3.794,0,0,1-1.9.487Zm1.661-6.714v5.38h.8a1.8,1.8,0,0,0,1.489-.637,2.876,2.876,0,0,0,.526-1.821v-.426A2.922,2.922,0,0,0,12.331-9.4a1.8,1.8,0,0,0-1.489-.634Z" transform="translate(-0.023 14.658)"/>
</svg>
