<svg xmlns="http://www.w3.org/2000/svg" viewBox="2.49 1.485 9.534 12.015">
  <defs>
    <style>
      .cls-1 {
        stroke: rgba(0,0,0,0);
        stroke-width: 1px;
      }
    </style>
  </defs>
  <path id="B" class="cls-1" d="M1.4-7.469V-18.484H5.353a5.6,5.6,0,0,1,3.234.779A2.593,2.593,0,0,1,9.7-15.443a2.621,2.621,0,0,1-.393,1.46,2.292,2.292,0,0,1-1.158.893,2.322,2.322,0,0,1,1.324.847A2.464,2.464,0,0,1,9.93-10.73,2.917,2.917,0,0,1,8.905-8.3a4.878,4.878,0,0,1-3.038.828Zm2.655-4.683v2.64h1.74a1.655,1.655,0,0,0,1.1-.329,1.152,1.152,0,0,0,.386-.927,1.221,1.221,0,0,0-1.369-1.384Zm0-1.74H5.436a1.971,1.971,0,0,0,1.241-.318,1.126,1.126,0,0,0,.371-.915,1.182,1.182,0,0,0-.4-1,2.151,2.151,0,0,0-1.294-.306h-1.3Z" transform="translate(1.594 20.469)"/>
</svg>
