<svg xmlns="http://www.w3.org/2000/svg" viewBox="0.542 1.65 14.958 11.685">
  <defs>
    <style>
      .cls-1 {
        stroke: rgba(0,0,0,0);
        stroke-width: 1px;
      }
    </style>
  </defs>
  <path id="H" class="cls-1" d="M10.362-7.8H8.513v-4.748H3.736V-7.8H1.879V-18.484H3.736v4.447H8.513v-4.447h1.849Zm5.475,0H11.822v-.869l1.849-1.944a2.207,2.207,0,0,0,.684-1.237.86.86,0,0,0-.162-.565.578.578,0,0,0-.47-.194.586.586,0,0,0-.494.259,1.064,1.064,0,0,0-.19.646H11.7a1.889,1.889,0,0,1,.265-.978,1.857,1.857,0,0,1,.735-.7,2.183,2.183,0,0,1,1.051-.253,2.148,2.148,0,0,1,1.436.431,1.538,1.538,0,0,1,.5,1.237,1.8,1.8,0,0,1-.126.662,2.9,2.9,0,0,1-.393.676,9.9,9.9,0,0,1-.859.946l-.743.857h2.264Z" transform="translate(-0.837 20.634)"/>
</svg>
