<svg xmlns="http://www.w3.org/2000/svg" viewBox="0 0 15 14.045">
  <defs>
    <style>
      .cls-1 {
        fill: #1e1e24;
      }
    </style>
  </defs>
  <g id="group-9" transform="translate(-1044 -515.165)">
    <g id="money" transform="translate(1044 517.722)">
      <path id="path" class="cls-1" d="M8.577,6.471h0l-.006-.007c-.008-.007-.014-.016-.023-.023l0,0L7.5,5.578V1.722A1.581,1.581,0,0,1,8.753,3.273l.312.041.313-.041A2.235,2.235,0,0,0,7.5,1.046V0H6.876V1.046A2.235,2.235,0,0,0,5,3.273a2.3,2.3,0,0,0,.72,1.671l0,0,.025.021h0l1.135.942V9.766A1.581,1.581,0,0,1,5.625,8.214H5a2.235,2.235,0,0,0,1.876,2.227v1.047H7.5V10.441A2.235,2.235,0,0,0,9.378,8.214,2.277,2.277,0,0,0,8.577,6.471ZM6.14,4.447a1.6,1.6,0,0,1-.514-1.174A1.581,1.581,0,0,1,6.876,1.722V5.058ZM7.5,9.766V6.43L8.192,7A1.587,1.587,0,0,1,7.5,9.766Z" transform="translate(-5 0)"/>
    </g>
    <g id="money-2" data-name="money" transform="translate(1054.622 517.722)">
      <path id="path-2" data-name="path" class="cls-1" d="M8.577,6.471h0l-.006-.007c-.008-.007-.014-.016-.023-.023l0,0L7.5,5.578V1.722A1.581,1.581,0,0,1,8.753,3.273l.312.041.313-.041A2.235,2.235,0,0,0,7.5,1.046V0H6.876V1.046A2.235,2.235,0,0,0,5,3.273a2.3,2.3,0,0,0,.72,1.671l0,0,.025.021h0l1.135.942V9.766A1.581,1.581,0,0,1,5.625,8.214H5a2.235,2.235,0,0,0,1.876,2.227v1.047H7.5V10.441A2.235,2.235,0,0,0,9.378,8.214,2.277,2.277,0,0,0,8.577,6.471ZM6.14,4.447a1.6,1.6,0,0,1-.514-1.174A1.581,1.581,0,0,1,6.876,1.722V5.058ZM7.5,9.766V6.43L8.192,7A1.587,1.587,0,0,1,7.5,9.766Z" transform="translate(-5 0)"/>
    </g>
    <g id="money-3" data-name="money" transform="translate(1049.193 515.165)">
      <path id="path-3" data-name="path" class="cls-1" d="M8.577,6.471h0l-.006-.007c-.008-.007-.014-.016-.023-.023l0,0L7.5,5.578V1.722A1.581,1.581,0,0,1,8.753,3.273l.312.041.313-.041A2.235,2.235,0,0,0,7.5,1.046V0H6.876V1.046A2.235,2.235,0,0,0,5,3.273a2.3,2.3,0,0,0,.72,1.671l0,0,.025.021h0l1.135.942V9.766A1.581,1.581,0,0,1,5.625,8.214H5a2.235,2.235,0,0,0,1.876,2.227v1.047H7.5V10.441A2.235,2.235,0,0,0,9.378,8.214,2.277,2.277,0,0,0,8.577,6.471ZM6.14,4.447a1.6,1.6,0,0,1-.514-1.174A1.581,1.581,0,0,1,6.876,1.722V5.058ZM7.5,9.766V6.43L8.192,7A1.587,1.587,0,0,1,7.5,9.766Z" transform="translate(-5 0)"/>
    </g>
  </g>
</svg>
