<svg xmlns="http://www.w3.org/2000/svg" viewBox="-0.5 0.358 16 14.267">
  <defs>
    <style>
      .cls-1 {
        fill: #bbbbbc;
        stroke: rgba(0,0,0,0);
        stroke-width: 1px;
      }
    </style>
  </defs>
  <g id="group-14" transform="translate(-4.119 -13.923)">
    <path id="_" data-name="“" class="cls-1" d="M18.486-58.6v1.875a3,3,0,0,0-1.33,1.736,10.148,10.148,0,0,0-.443,3.307v.583h2.407v5.625H13.494v-4.206a12.488,12.488,0,0,1,1.242-6.056A5.717,5.717,0,0,1,18.486-58.6Zm-9.375,0v1.875a3,3,0,0,0-1.33,1.736,10.148,10.148,0,0,0-.443,3.307v.583H9.744v5.625H4.119v-4.206a12.488,12.488,0,0,1,1.242-6.056A5.717,5.717,0,0,1,9.111-58.6Z" transform="translate(0 73.519)"/>
  </g>
</svg>
