<svg xmlns="http://www.w3.org/2000/svg" viewBox="4 0 6.005 15">
  <defs>
    <style>
      .cls-1 {
        fill: #cb5a33;
      }

      .cls-2 {
        fill: #bf3100;
      }

      .cls-3 {
        fill: #fefefe;
      }

      .cls-4 {
        fill: #e8e8e8;
      }

      .cls-5 {
        fill: #f18f1b;
      }
    </style>
  </defs>
  <g id="group-31" transform="translate(-77.648 -651.674)">
    <path id="path-19" class="cls-1" d="M-57-1691.877c-.65-5,.032-6.515,1.813-8.45,1.683,1.885,2.325,3.281,1.555,8.45a18.237,18.237,0,0,0,1.284,1.355l-.266,1.612s-.918-.617-1.164-.777a.2.2,0,0,0-.321.108,4.753,4.753,0,0,0-.269.557,2.212,2.212,0,0,1-2.042,0c-.133-.122-.094-.6-.392-.761-.418.2-1.37.761-1.37.761l-.181-1.592S-57.483-1691.476-57-1691.877Z" transform="translate(140 2352)"/>
    <path id="path-19-2" data-name="path-19" class="cls-2" d="M-57.648-1470.284c-.282.16-.522.3-.522.3l-.181-1.592s.194-.192.456-.445A15.624,15.624,0,0,0-57.648-1470.284Z" transform="translate(140 2132.962)"/>
    <path id="path-19-3" data-name="path-19" class="cls-2" d="M-30.981-1694.969a6.728,6.728,0,0,1,2.055-5.358,11.421,11.421,0,0,1,.757.927C-29.561-1698.513-30.353-1697.232-30.981-1694.969Z" transform="translate(113.741 2352.001)"/>
    <path id="path-20" class="cls-1" d="M-14.481-1410.66a3.21,3.21,0,0,0,1.118-1.859c.058-.008.1-.1.158-.115a4.091,4.091,0,0,1-1.277,3.037,4,4,0,0,1-1.159-3.037c.072.011.1.05.142.06A3.4,3.4,0,0,0-14.481-1410.66Z" transform="translate(99.031 2076.271)"/>
    <circle id="ellipse-9" class="cls-3" cx="0.771" cy="0.771" r="0.771" transform="translate(83.977 654.691)"/>
    <path id="ellipse-9-2" data-name="ellipse-9" class="cls-4" d="M.771,0a.784.784,0,0,1,.3.059,1.213,1.213,0,0,0-1.023.97A.754.754,0,0,1,0,.771.771.771,0,0,1,.771,0Z" transform="translate(83.977 654.691)"/>
    <path id="path-20-2" data-name="path-20" class="cls-5" d="M-15.136-1407.944a2.949,2.949,0,0,0,1.086-1.756,1.74,1.74,0,0,0,.22-.069,3.528,3.528,0,0,1-1.306,2.733,3.5,3.5,0,0,1-1.188-2.768c.072.01.149.024.19.034A3.147,3.147,0,0,0-15.136-1407.944Z" transform="translate(99.687 2073.271)"/>
  </g>
</svg>
