<svg xmlns="http://www.w3.org/2000/svg" xmlns:xlink="http://www.w3.org/1999/xlink" viewBox="-949 -1380.883 58 71.765">
  <defs>
    <style>
      .cls-1 {
        fill: #f4f4f4;
        stroke-width: 1px;
      }

      .cls-1, .cls-2 {
        stroke: #1d1d23;
      }

      .cls-2 {
        fill: none;
        stroke-width: 2px;
      }

      .cls-3 {
        filter: url(#ellipse-2);
      }
    </style>
    <filter id="ellipse-2" x="-949" y="-1380.883" width="58" height="71.765" filterUnits="userSpaceOnUse">
      <feOffset input="SourceAlpha"/>
      <feGaussianBlur stdDeviation="5" result="blur"/>
      <feFlood/>
      <feComposite operator="in" in2="blur"/>
      <feComposite in="SourceGraphic"/>
    </filter>
  </defs>
  <g id="group-10" transform="translate(-960 -2301.882)">
    <g class="cls-3" transform="matrix(1, 0, 0, 1, 960, 2301.88)">
      <path id="ellipse-2-2" data-name="ellipse-2" class="cls-1" d="M14,.5C26.97.462,27.5,9.625,27.5,20.882S26.937,41.265,14,41.265.5,32.139.5,20.882,1.03.538,14,.5Z" transform="translate(-934 -1365.88)"/>
    </g>
    <g id="group-11" transform="translate(1.897 -9.524)">
      <path id="path-5" class="cls-2" d="M-1628.571-1370.23l3.187-3.123-3.187,2.841-3.3-2.841Z" transform="translate(1666.642 2329.053)"/>
      <path id="path-5-2" data-name="path-5" class="cls-2" d="M-1628.571-1370.23l3.187-3.123-3.187,2.841-3.3-2.841Z" transform="translate(1666.642 2324.637)"/>
      <path id="path-5-3" data-name="path-5" class="cls-2" d="M-1628.571-1370.23l3.187-3.123-3.187,2.841-3.3-2.841Z" transform="translate(1666.642 2333.394)"/>
    </g>
  </g>
</svg>
