<svg xmlns="http://www.w3.org/2000/svg" viewBox="-502.209 -2212.564 12.202 9.91"><defs><style>.a{fill:#fefefe;}</style></defs><g transform="translate(-502.209 -2212.564)"><path class="a" d="M10.948,4.067c.008.108.008.217.008.326a7.066,7.066,0,0,1-7.115,7.115A7.072,7.072,0,0,1,0,10.385a5.243,5.243,0,0,0,.6.03,5.01,5.01,0,0,0,3.1-1.068A2.5,2.5,0,0,1,1.371,7.612a3.173,3.173,0,0,0,.471.039A2.661,2.661,0,0,0,2.5,7.566,2.5,2.5,0,0,1,.5,5.112V5.081a2.531,2.531,0,0,0,1.13.317A2.5,2.5,0,0,1,.852,2.054,7.1,7.1,0,0,0,6.008,4.671,2.774,2.774,0,0,1,5.946,4.1a2.5,2.5,0,0,1,4.328-1.71,4.934,4.934,0,0,0,1.587-.6,2.489,2.489,0,0,1-1.1,1.377A4.994,4.994,0,0,0,12.2,2.773a5.392,5.392,0,0,1-1.254,1.293Z" transform="translate(0 -1.597)"/></g></svg>