<svg xmlns="http://www.w3.org/2000/svg" viewBox="4.233 1.699 6.078 11.652">
  <path id="help" d="M8.853,11.387a1.225,1.225,0,1,1-1.225-1.225,1.225,1.225,0,0,1,1.225,1.225Zm1.02-9.365A2.762,2.762,0,0,0,7.631.959,2.991,2.991,0,0,0,4.439,3.813l.752.02a2.217,2.217,0,0,1,2.44-2.121,2.031,2.031,0,0,1,1.653.778,1.953,1.953,0,0,1,.469,1.378A3.587,3.587,0,0,1,8.42,5.793,3.3,3.3,0,0,0,6.992,8.468h.752A2.593,2.593,0,0,1,8.923,6.352a4.3,4.3,0,0,0,1.561-2.314,2.656,2.656,0,0,0-.611-2.016Z" transform="translate(-0.206 0.74)"/>
</svg>
