<svg xmlns="http://www.w3.org/2000/svg" viewBox="-0.124 0.585 15.187 13.556">
  <defs>
    <style>
      .cls-1 {
        fill: #bbbbbc;
        stroke: rgba(0,0,0,0);
        stroke-width: 1px;
      }
    </style>
  </defs>
  <path id="_" data-name="“" class="cls-1" d="M17.707-58.6v1.773a2.832,2.832,0,0,0-1.258,1.642,9.6,9.6,0,0,0-.419,3.127v.551h2.277v5.32h-5.32V-50.16a11.811,11.811,0,0,1,1.174-5.728A5.407,5.407,0,0,1,17.707-58.6Zm-8.867,0v1.773a2.832,2.832,0,0,0-1.258,1.642,9.6,9.6,0,0,0-.419,3.127v.551H9.439v5.32H4.119V-50.16a11.811,11.811,0,0,1,1.174-5.728A5.407,5.407,0,0,1,8.84-58.6Z" transform="translate(18.682 -45.097) rotate(-180)"/>
</svg>
